<svg xmlns="http://www.w3.org/2000/svg" width="1200" height="630" viewBox="0 0 1200 630" role="img" aria-labelledby="title desc">
  <title id="title">Thiệp cưới Online Gia Hân</title>
  <desc id="desc">Thiệp cưới online hiện đại và tinh tế</desc>
  <defs>
    <linearGradient id="background" x1="0" y1="0" x2="1" y2="1">
      <stop offset="0" stop-color="#061d43"/>
      <stop offset="1" stop-color="#0b3974"/>
    </linearGradient>
    <radialGradient id="glow" cx="50%" cy="40%" r="70%">
      <stop offset="0" stop-color="#fff8ef" stop-opacity=".17"/>
      <stop offset="1" stop-color="#fff8ef" stop-opacity="0"/>
    </radialGradient>
  </defs>
  <rect width="1200" height="630" fill="url(#background)"/>
  <rect width="1200" height="630" fill="url(#glow)"/>
  <g fill="none" stroke="#f7dcc6" stroke-opacity=".42" stroke-width="2">
    <path d="M930 0c-54 94-87 183-96 273-8 84 17 166 81 235"/>
    <path d="M1037 0c-57 128-63 257-7 384 24 54 56 100 98 138"/>
    <path d="M1123 53c-56 65-82 140-79 225 3 91 34 168 92 231"/>
  </g>
  <g fill="#f7dcc6" fill-opacity=".78">
    <circle cx="921" cy="75" r="8"/><circle cx="896" cy="129" r="6"/><circle cx="871" cy="188" r="9"/>
    <circle cx="1015" cy="112" r="9"/><circle cx="995" cy="181" r="6"/><circle cx="990" cy="249" r="10"/>
    <circle cx="1113" cy="142" r="7"/><circle cx="1081" cy="220" r="10"/><circle cx="1072" cy="301" r="6"/>
  </g>
  <g transform="translate(160 125)">
    <circle cx="126" cy="126" r="112" fill="#ffffff" fill-opacity=".08" stroke="#f7dcc6" stroke-width="4"/>
    <circle cx="126" cy="126" r="95" fill="none" stroke="#ffffff" stroke-opacity=".62" stroke-width="2"/>
    <text x="126" y="145" text-anchor="middle" fill="#ffffff" font-family="DejaVu Sans, Arial, sans-serif" font-size="72" font-weight="700" letter-spacing="4">GH</text>
    <text x="126" y="177" text-anchor="middle" fill="#f7dcc6" font-family="DejaVu Sans, Arial, sans-serif" font-size="18" font-weight="700" letter-spacing="5">WEDDING</text>
  </g>
  <g transform="translate(440 164)">
    <text x="0" y="0" fill="#f7dcc6" font-family="DejaVu Sans, Arial, sans-serif" font-size="25" font-weight="700" letter-spacing="6">THIỆP CƯỚI ONLINE</text>
    <text x="0" y="95" fill="#ffffff" font-family="Georgia, DejaVu Serif, serif" font-size="100" font-style="italic">Gia Hân</text>
    <rect x="2" y="130" width="430" height="2" fill="#b98072"/>
    <text x="0" y="185" fill="#ffffff" font-family="DejaVu Sans, Arial, sans-serif" font-size="32" font-weight="700">THIỆP MỜI ĐẸP • TINH TẾ • HIỆN ĐẠI</text>
    <text x="0" y="232" fill="#f7dcc6" font-family="DejaVu Sans, Arial, sans-serif" font-size="24">Lưu giữ ngày yêu thương</text>
  </g>
  <text x="160" y="556" fill="#ffffff" fill-opacity=".78" font-family="DejaVu Sans, Arial, sans-serif" font-size="21" letter-spacing="2">THIỆP CƯỚI ONLINE GIA HÂN</text>
</svg>
